# xmcd
#
# Track frame offsets:
#	150
#	11872
#	28315
#	42692
#	55967
#	67287
#	79147
#	93437
#	105792
#	124082
#	135420
#	148512
#	160762
#	176380
#	187300
#	204250
#	215765
#	233202
#	250477
#	262475
#	279572
#	292870
#	306557
#	317295
#	328130
#
# Disc length: 4521
#
# Revision: 3
# Processed by: cddbd v1.5.1PL0 Copyright (c) Steve Scherf et al.
# Submitted via: CedeCatalogueitor 2.5 http://usuarios.lycos.es/kakasboy
# Normalized: r1:DSETVAR1,TDELIM( - ),TSWAP
#
DISCID=8611a719
DTITLE=Various Artist - Las 100 Mejores Canciones Del Country CD-3
DYEAR=1996
DGENRE=Country
TTITLE0=Tim McGraw - Down On The Farm
TTITLE1=Wynonna - Tell Me Why
TTITLE2=The Bellamy Brothers - Let Your Love Flow
TTITLE3=Jim Croce - Bad Bad Leroy Brown
TTITLE4=Johnny Cash - A Thing Called Love
TTITLE5=Tammy Wynette - Stand By Your Man
TTITLE6=Merle Haggard - Train Whistle Blues
TTITLE7=Kenny Rogers - James Reuben
TTITLE8=The Judds - Water Of Love
TTITLE9=Freddy Fender - Before The Next Teardrop Falls
TTITLE10=Ray Charles - Cryin' Time
TTITLE11=Dolly Parton - Makin' Believe
TTITLE12=Tony Willé - Desperado
TTITLE13=Pat Boone - April Love
TTITLE14=Dr. Hook - Sylvia's Mother
TTITLE15=Sutherland Brothers and Quivers - Arms Of Mary
TTITLE16=Tanya Tucker - The Best Of My Love
TTITLE17=Marie Osmond and Dan Seals - Meet Me In Montana
TTITLE18=Ronnie Mcdowell - Watchin' Girls Go By
TTITLE19=Philip Claypool - Feel Like Makin' Love
TTITLE20=Rick Vincent - The Best Mistake I Ever Made
TTITLE21=Eddie Arnold - There Goes My Everything
TTITLE22=Jeff Carson - Yeah Buddy
TTITLE23=The Seekers - Georgy Girl
TTITLE24=Don Gibson - Oh Lonesome Me
EXTD=
EXTT0=
EXTT1=
EXTT2=
EXTT3=
EXTT4=
EXTT5=
EXTT6=
EXTT7=
EXTT8=
EXTT9=
EXTT10=
EXTT11=
EXTT12=
EXTT13=
EXTT14=
EXTT15=
EXTT16=
EXTT17=
EXTT18=
EXTT19=
EXTT20=
EXTT21=
EXTT22=
EXTT23=
EXTT24=
PLAYORDER=
